# This file uses centimeters as units for non-parametric coordinates.

mtllib cieloo.mtl
g default
v -11.673518 -0.333333 11.935305
v 11.673518 -0.333333 11.935305
v -11.673518 9.334036 11.935305
v 11.673518 9.334036 11.935305
v -11.673518 9.334036 -11.935305
v 11.673518 9.334036 -11.935305
v -11.673518 -0.333333 -11.935305
v 11.673518 -0.333333 -11.935305
vt 0.967843 0.993327
vt -0.018811 0.993327
vt -0.018811 0.006673
vt 0.967842 0.006673
vt 0.967843 0.993327
vt -0.018811 0.993327
vt -0.018812 0.006673
vt 0.967843 0.006673
vt 0.394686 0.391482
vt 0.612206 0.391482
vt 0.612206 0.609002
vt 0.394686 0.609002
vt 0.475821 0.477108
vt 0.521605 0.477108
vt 0.521605 0.522891
vt 0.475821 0.522891
vt 0.967843 0.993327
vt -0.018811 0.993327
vt -0.018811 0.006673
vt 0.967843 0.006673
vt -0.018811 0.006673
vt 0.967843 0.006673
vt 0.967843 0.993327
vt -0.018811 0.993327
vn 0.000000 0.000000 1.000000
vn 0.000000 0.000000 1.000000
vn 0.000000 0.000000 1.000000
vn 0.000000 0.000000 1.000000
vn 0.000000 1.000000 0.000000
vn 0.000000 1.000000 0.000000
vn 0.000000 1.000000 0.000000
vn 0.000000 1.000000 0.000000
vn 0.000000 0.000000 -1.000000
vn 0.000000 0.000000 -1.000000
vn 0.000000 0.000000 -1.000000
vn 0.000000 0.000000 -1.000000
vn 0.000000 -1.000000 0.000000
vn 0.000000 -1.000000 0.000000
vn 0.000000 -1.000000 0.000000
vn 0.000000 -1.000000 0.000000
vn 1.000000 0.000000 0.000000
vn 1.000000 0.000000 0.000000
vn 1.000000 0.000000 0.000000
vn 1.000000 0.000000 0.000000
vn -1.000000 0.000000 0.000000
vn -1.000000 0.000000 0.000000
vn -1.000000 0.000000 0.000000
vn -1.000000 0.000000 0.000000
s off
g pCube1
usemtl lambert2SG
f 1/17/1 2/18/2 4/19/3 3/20/4
f 3/9/5 4/10/6 6/11/7 5/12/8
f 5/21/9 6/22/10 8/23/11 7/24/12
f 7/13/13 8/14/14 2/15/15 1/16/16
f 2/1/17 8/2/18 6/3/19 4/4/20
f 7/5/21 1/6/22 3/7/23 5/8/24
