# This file uses centimeters as units for non-parametric coordinates.

mtllib ventana_cocina.mtl
g default
v -0.072107 -0.433333 0.794445
v 0.072116 -0.433333 0.794445
v -0.072107 0.433333 0.794445
v 0.072116 0.433333 0.794445
v -0.072107 0.433333 -0.794444
v 0.072116 0.433333 -0.794444
v -0.072107 -0.433333 -0.794444
v 0.072116 -0.433333 -0.794444
v 0.072116 -0.433333 -0.794444
v 0.072116 -0.433333 0.794445
v 0.072116 0.433333 -0.794444
v 0.072116 0.433333 0.794445
v 0.072116 -0.333353 -0.794444
v -0.072107 -0.333353 -0.794444
v -0.072107 -0.333353 0.794445
v 0.072116 -0.333353 0.794445
v 0.072116 -0.333353 0.794445
v 0.072116 -0.333353 -0.794444
v 0.072116 -0.390600 -0.794444
v -0.072107 -0.390600 -0.794444
v -0.072107 -0.390600 0.794445
v 0.072116 -0.390600 0.794445
v 0.072116 -0.390600 0.794445
v 0.072116 -0.390600 -0.794444
v -0.072107 -0.390600 0.836627
v 0.072116 -0.390600 0.836627
v 0.072116 -0.333353 0.836627
v -0.072107 -0.333353 0.836627
v 0.072116 -0.333353 -0.848678
v -0.072107 -0.333353 -0.848678
v 0.072116 -0.390600 -0.848678
v -0.072107 -0.390600 -0.848678
v 0.125828 -0.390600 0.794445
v 0.125828 -0.390600 -0.794444
v 0.125828 -0.333353 -0.794444
v 0.125828 -0.333353 0.794445
v 0.125828 -0.390600 0.794445
v 0.125828 -0.333353 0.794445
v 0.125828 -0.333353 0.836627
v 0.125828 -0.390600 0.836627
v 0.125828 -0.333353 -0.794444
v 0.125828 -0.390600 -0.794444
v 0.125828 -0.390600 -0.848678
v 0.125828 -0.333353 -0.848678
v 0.072116 -0.288353 0.749444
v 0.072116 -0.288353 -0.749444
v 0.072116 0.388333 -0.749444
v 0.072116 0.388333 0.749444
v -0.011010 -0.288353 0.749444
v -0.011010 -0.288353 -0.749444
v -0.011010 0.388333 -0.749444
v -0.011010 0.388333 0.749444
vt -0.953831 -0.119788
vt 0.017181 -0.119797
vt -0.953942 0.993762
vt 0.017106 0.993747
vt -0.953942 2.107263
vt 0.017106 2.107240
vt -0.953831 3.220586
vt 0.017181 3.220556
vt -0.953831 4.334044
vt 0.017181 4.334006
vt 0.988175 -0.119797
vt 0.988136 0.993747
vt -1.924831 -0.119788
vt -1.924978 0.993762
vt 0.017181 -0.119797
vt 0.988175 -0.119797
vt 0.988136 0.993747
vt 0.017106 0.993747
vt 0.017106 3.092279
vt 0.988136 0.008709
vt -1.924978 0.008718
vt -0.953942 3.092308
vt -0.953942 0.008718
vt 0.017106 0.008709
vt 0.017106 0.008709
vt 0.988136 0.008709
vt 0.017139 3.165751
vt 0.988153 -0.064866
vt -1.924914 -0.064857
vt -0.953893 3.165782
vt -0.953893 -0.064857
vt 0.017139 -0.064866
vt 0.017139 -0.064866
vt 0.988153 -0.064866
vt -0.953861 -0.064873
vt 0.017161 -0.064881
vt 0.017128 0.008692
vt -0.953910 0.008702
vt -0.953897 3.092237
vt 0.017137 3.092208
vt 0.017170 3.165679
vt -0.953847 3.165709
vt 0.017186 -0.064898
vt 0.988177 -0.064898
vt 0.988160 0.008675
vt 0.017152 0.008675
vt 0.017186 -0.064898
vt 0.017152 0.008675
vt 0.017174 0.008658
vt 0.017208 -0.064914
vt 0.017152 3.092171
vt 0.017186 3.165642
vt 0.017216 3.165570
vt 0.017183 3.092100
vt 0.017090 0.008720
vt 0.988128 0.008720
vt 0.988128 0.993766
vt 0.017090 0.993766
vt 0.017063 0.008740
vt 0.988114 0.008740
vt 0.988114 0.993800
vt 0.017063 0.993800
vn 0.000000 0.000000 1.000000
vn 0.000000 0.000000 1.000000
vn 0.000000 0.000000 1.000000
vn 0.000000 0.000000 1.000000
vn 0.000000 1.000000 0.000000
vn 0.000000 1.000000 0.000000
vn 0.000000 1.000000 0.000000
vn 0.000000 1.000000 0.000000
vn 0.000000 0.000000 -1.000000
vn 0.000000 0.000000 -1.000000
vn 0.000000 0.000000 -1.000000
vn 0.000000 0.000000 -1.000000
vn 0.000000 -1.000000 0.000000
vn 0.000000 -1.000000 0.000000
vn 0.000000 -1.000000 0.000000
vn 0.000000 -1.000000 0.000000
vn 1.000000 0.000000 0.000000
vn 1.000000 0.000000 0.000000
vn 1.000000 0.000000 0.000000
vn 1.000000 0.000000 0.000000
vn -1.000000 0.000000 0.000000
vn -1.000000 0.000000 0.000000
vn -1.000000 0.000000 0.000000
vn -1.000000 0.000000 0.000000
vn 0.000000 0.000000 0.000000
vn 0.000000 0.000000 0.000000
vn 0.000000 0.000000 0.000000
vn 0.000000 0.000000 0.000000
vn 0.000000 0.000000 0.000000
vn 0.000000 0.000000 0.000000
vn 0.000000 0.000000 0.000000
vn 0.000000 0.000000 0.000000
vn 0.000000 0.000000 0.000000
vn 0.000000 0.000000 0.000000
vn 0.000000 0.000000 0.000000
vn 0.000000 0.000000 0.000000
vn 0.000000 0.000000 0.000000
vn 0.000000 0.000000 0.000000
vn 0.000000 0.000000 0.000000
vn 0.000000 0.000000 0.000000
vn 0.000000 0.000000 -1.000000
vn 0.000000 0.000000 -1.000000
vn 0.000000 0.000000 -1.000000
vn 0.000000 0.000000 -1.000000
vn -1.000000 0.000000 0.000000
vn -1.000000 0.000000 0.000000
vn 0.000000 0.000000 1.000000
vn 0.000000 0.000000 1.000000
vn 0.000000 0.000000 1.000000
vn 0.000000 0.000000 1.000000
vn 0.000000 0.000000 0.000000
vn 0.000000 0.000000 0.000000
vn 0.000000 0.000000 0.000000
vn 0.000000 0.000000 0.000000
vn 1.000000 0.000000 0.000000
vn 1.000000 0.000000 0.000000
vn 1.000000 0.000000 0.000000
vn 1.000000 0.000000 0.000000
vn 0.000000 0.000000 0.000000
vn 0.000000 0.000000 0.000000
vn 0.000000 0.000000 0.000000
vn 0.000000 0.000000 0.000000
vn 0.000000 0.000000 -1.000000
vn 0.000000 0.000000 -1.000000
vn 0.000000 0.000000 -1.000000
vn 0.000000 0.000000 -1.000000
vn -1.000000 0.000000 0.000000
vn -1.000000 0.000000 0.000000
vn 0.000000 0.000000 1.000000
vn 0.000000 0.000000 1.000000
vn 0.000000 0.000000 1.000000
vn 0.000000 0.000000 1.000000
vn 0.000000 0.000000 0.000000
vn 0.000000 0.000000 0.000000
vn 0.000000 0.000000 0.000000
vn 0.000000 0.000000 0.000000
vn 1.000000 0.000000 0.000000
vn 1.000000 0.000000 0.000000
vn 1.000000 0.000000 0.000000
vn 1.000000 0.000000 0.000000
vn 0.000000 0.000000 0.000000
vn 0.000000 0.000000 0.000000
vn 0.000000 0.000000 0.000000
vn 0.000000 0.000000 0.000000
vn 0.000000 -1.000000 0.000000
vn 0.000000 -1.000000 0.000000
vn 0.000000 -1.000000 0.000000
vn 0.000000 -1.000000 0.000000
vn 1.000000 0.000000 0.000000
vn 1.000000 0.000000 0.000000
vn 1.000000 0.000000 0.000000
vn 1.000000 0.000000 0.000000
vn 0.000000 1.000000 0.000000
vn 0.000000 1.000000 0.000000
vn 0.000000 1.000000 0.000000
vn 0.000000 1.000000 0.000000
vn -1.000000 0.000000 0.000000
vn -1.000000 0.000000 0.000000
vn 0.000000 1.000000 0.000000
vn 0.000000 1.000000 0.000000
vn 0.000000 1.000000 0.000000
vn 0.000000 1.000000 0.000000
vn 1.000000 0.000000 0.000000
vn 1.000000 0.000000 0.000000
vn 1.000000 0.000000 0.000000
vn 1.000000 0.000000 0.000000
vn 0.000000 -1.000000 0.000000
vn 0.000000 -1.000000 0.000000
vn 0.000000 -1.000000 0.000000
vn 0.000000 -1.000000 0.000000
vn -1.000000 0.000000 0.000000
vn -1.000000 0.000000 0.000000
vn 0.000000 -1.000000 0.000000
vn 0.000000 -1.000000 0.000000
vn 0.000000 -1.000000 0.000000
vn 0.000000 -1.000000 0.000000
vn 0.000000 0.000000 -1.000000
vn 0.000000 0.000000 -1.000000
vn 0.000000 0.000000 -1.000000
vn 0.000000 0.000000 -1.000000
vn 0.000000 1.000000 0.000000
vn 0.000000 1.000000 0.000000
vn 0.000000 1.000000 0.000000
vn 0.000000 1.000000 0.000000
vn 0.000000 0.000000 1.000000
vn 0.000000 0.000000 1.000000
vn 0.000000 0.000000 1.000000
vn 0.000000 0.000000 1.000000
vn 0.000000 0.000000 -1.000000
vn 0.000000 0.000000 -1.000000
vn 0.000000 0.000000 -1.000000
vn 0.000000 0.000000 -1.000000
vn 0.000000 1.000000 0.000000
vn 0.000000 1.000000 0.000000
vn 0.000000 0.000000 1.000000
vn 0.000000 0.000000 1.000000
vn 0.000000 -1.000000 0.000000
vn 0.000000 -1.000000 0.000000
vn 0.000000 0.000000 1.000000
vn 0.000000 0.000000 1.000000
vn 0.000000 0.000000 1.000000
vn 0.000000 0.000000 1.000000
vn 0.000000 -1.000000 0.000000
vn 0.000000 -1.000000 0.000000
vn 0.000000 0.000000 -1.000000
vn 0.000000 0.000000 -1.000000
vn 0.000000 1.000000 0.000000
vn 0.000000 1.000000 0.000000
vn 1.000000 0.000000 0.000000
vn 1.000000 0.000000 0.000000
vn 1.000000 0.000000 0.000000
vn 1.000000 0.000000 0.000000
vn 1.000000 -0.000000 0.000000
vn 1.000000 -0.000000 0.000000
vn 1.000000 -0.000000 0.000000
vn 1.000000 -0.000000 0.000000
vn 0.000000 1.000000 0.000000
vn 0.000000 1.000000 0.000000
vn 0.000000 1.000000 0.000000
vn 0.000000 1.000000 0.000000
vn 0.000000 0.000000 1.000000
vn 0.000000 0.000000 1.000000
vn 0.000000 0.000000 1.000000
vn 0.000000 0.000000 1.000000
vn 0.000000 -1.000000 0.000000
vn 0.000000 -1.000000 0.000000
vn 0.000000 -1.000000 0.000000
vn 0.000000 -1.000000 0.000000
vn 0.000000 0.000000 -1.000000
vn 0.000000 0.000000 -1.000000
vn 0.000000 0.000000 -1.000000
vn 0.000000 0.000000 -1.000000
s off
g pCube1
usemtl lambert2SG
f 15/23/1 16/24/2 4/4/3 3/3/4
f 3/3/5 4/4/6 6/6/7 5/5/8
f 5/5/9 6/6/10 13/19/11 14/22/12
f 7/7/13 8/8/14 2/10/15 1/9/16
usemtl lambert3SG
f 49/59/17 50/60/18 51/61/19 52/62/20
s 1
usemtl lambert2SG
f 14/21/21 15/23/22 3/3/23 5/14/24
s off
f 2/2/25 8/11/26 9/16/27 10/15/28
f 18/26/29 13/20/30 6/12/31 11/17/32
f 6/12/33 4/4/34 12/18/35 11/17/36
f 4/4/37 16/24/38 17/25/39 12/18/40
s 2
f 30/39/41 29/40/42 31/41/43 32/42/44
s 1
f 20/29/45 21/31/46 15/23/22 14/21/21
s 3
f 25/35/47 26/36/48 27/37/49 28/38/50
s off
f 17/25/51 16/24/52 22/32/53 23/33/54
f 33/43/55 34/44/56 35/45/57 36/46/58
f 24/34/59 19/28/60 13/20/61 18/26/62
f 20/30/63 19/27/64 8/8/65 7/7/66
s 1
f 7/13/67 1/1/68 21/31/46 20/29/45
s off
f 1/1/69 2/2/70 22/32/71 21/31/72
f 23/33/73 22/32/74 2/2/75 10/15/76
f 10/15/77 9/16/78 24/34/79 23/33/80
f 8/11/81 19/28/82 24/34/83 9/16/84
s 4
f 21/31/85 22/32/86 26/36/87 25/35/88
s off
f 37/47/89 38/48/90 39/49/91 40/50/92
s 5
f 16/24/93 15/23/94 28/38/95 27/37/96
s 1
f 15/23/22 21/31/46 25/35/97 28/38/98
s 6
f 14/22/99 13/19/100 29/40/101 30/39/102
s off
f 41/51/103 42/52/104 43/53/105 44/54/106
s 7
f 19/27/107 20/30/108 32/42/109 31/41/110
s 1
f 20/30/45 14/22/21 30/39/111 32/42/112
s off
f 23/33/113 24/34/114 34/44/115 33/43/116
f 24/34/117 18/26/118 35/45/119 34/44/120
f 18/26/121 17/25/122 36/46/123 35/45/124
f 17/25/125 23/33/126 33/43/127 36/46/128
f 22/32/129 16/24/130 38/48/131 37/47/132
s 5
f 16/24/93 27/37/96 39/49/133 38/48/134
s 3
f 27/37/49 26/36/48 40/50/135 39/49/136
s 4
f 26/36/87 22/32/86 37/47/137 40/50/138
s off
f 13/19/139 19/27/140 42/52/141 41/51/142
s 7
f 19/27/107 31/41/110 43/53/143 42/52/144
s 2
f 31/41/43 29/40/42 44/54/145 43/53/146
s 6
f 29/40/101 13/19/100 41/51/147 44/54/148
s 8
f 17/25/149 18/26/150 46/56/151 45/55/152
f 18/26/150 11/17/153 47/57/154 46/56/151
f 11/17/153 12/18/155 48/58/156 47/57/154
f 12/18/155 17/25/149 45/55/152 48/58/156
s off
f 45/55/157 46/56/158 50/60/159 49/59/160
f 46/56/161 47/57/162 51/61/163 50/60/164
f 47/57/165 48/58/166 52/62/167 51/61/168
f 48/58/169 45/55/170 49/59/171 52/62/172
